<svg xmlns="http://www.w3.org/2000/svg" width="805" height="600"><rect width="805" height="600" x="0" y="0" fill="#FFFFFF" id="background"/><g transform="translate(10,10)" id="visualization"><g><rect x="780" y="0" height="20.185185185185183" width="5" fill="black"><title>19: 1</title></rect><rect x="780" y="25.185185185185183" height="20.18518518518522" width="5" fill="black"><title>28: 1</title></rect><rect x="780" y="50.3703703703704" height="40.370370370370374" width="5" fill="black"><title>21: 2</title></rect><rect x="780" y="95.74074074074078" height="40.37037037037037" width="5" fill="black"><title>25: 2</title></rect><rect x="780" y="141.11111111111114" height="60.55555555555554" width="5" fill="black"><title>23: 3</title></rect><rect x="0" y="10" height="80.74074074074075" width="5" fill="black"><title>IN23: 4</title></rect><rect x="0" y="95.74074074074075" height="100.92592592592594" width="5" fill="black"><title>A22: 5</title></rect><rect x="780" y="206.66666666666669" height="100.92592592592592" width="5" fill="black"><title>20: 5</title></rect><rect x="780" y="312.5925925925926" height="121.11111111111109" width="5" fill="black"><title>22: 6</title></rect><rect x="780" y="438.7037037037037" height="141.2962962962963" width="5" fill="black"><title>24: 7</title></rect><rect x="0" y="201.66666666666669" height="161.48148148148147" width="5" fill="black"><title>L20: 8</title></rect><rect x="0" y="368.14814814814815" height="201.85185185185185" width="5" fill="black"><title>S10-Rev23: 10</title></rect></g><g fill="none" stroke-opacity="1"><g style="mix-blend-mode: multiply;"><path d="M5,126.01851851851853C392.5,126.01851851851853,392.5,60.462962962963,780,60.462962962963" stroke="#1f77b4" stroke-width="20.185185185185187"/><title>A22 → 21: 1</title></g><g style="mix-blend-mode: multiply;"><path d="M5,105.83333333333334C392.5,105.83333333333334,392.5,10.092592592592593,780,10.092592592592593" stroke="#1f77b4" stroke-width="20.185185185185187"/><title>A22 → 19: 1</title></g><g style="mix-blend-mode: multiply;"><path d="M5,176.4814814814815C392.5,176.4814814814815,392.5,226.85185185185188,780,226.85185185185188" stroke="#1f77b4" stroke-width="40.370370370370374"/><title>A22 → 20: 2</title></g><g style="mix-blend-mode: multiply;"><path d="M5,146.2037037037037C392.5,146.2037037037037,392.5,105.83333333333337,780,105.83333333333337" stroke="#1f77b4" stroke-width="20.185185185185187"/><title>A22 → 25: 1</title></g><g style="mix-blend-mode: multiply;"><path d="M5,50.370370370370374C392.5,50.370370370370374,392.5,352.962962962963,780,352.962962962963" stroke="#ff7f0e" stroke-width="80.74074074074075"/><title>IN23 → 22: 4</title></g><g style="mix-blend-mode: multiply;"><path d="M5,262.22222222222223C392.5,262.22222222222223,392.5,161.29629629629633,780,161.29629629629633" stroke="#2ca02c" stroke-width="40.370370370370374"/><title>L20 → 23: 2</title></g><g style="mix-blend-mode: multiply;"><path d="M5,353.0555555555556C392.5,353.0555555555556,392.5,403.425925925926,780,403.425925925926" stroke="#2ca02c" stroke-width="20.185185185185187"/><title>L20 → 22: 1</title></g><g style="mix-blend-mode: multiply;"><path d="M5,312.6851851851852C392.5,312.6851851851852,392.5,277.31481481481484,780,277.31481481481484" stroke="#2ca02c" stroke-width="60.55555555555556"/><title>L20 → 20: 3</title></g><g style="mix-blend-mode: multiply;"><path d="M5,211.75925925925927C392.5,211.75925925925927,392.5,80.64814814814818,780,80.64814814814818" stroke="#2ca02c" stroke-width="20.185185185185187"/><title>L20 → 21: 1</title></g><g style="mix-blend-mode: multiply;"><path d="M5,231.94444444444446C392.5,231.94444444444446,392.5,126.01851851851856,780,126.01851851851856" stroke="#2ca02c" stroke-width="20.185185185185187"/><title>L20 → 25: 1</title></g><g style="mix-blend-mode: multiply;"><path d="M5,418.6111111111111C392.5,418.6111111111111,392.5,423.61111111111114,780,423.61111111111114" stroke="#d62728" stroke-width="20.185185185185187"/><title>S10-Rev23 → 22: 1</title></g><g style="mix-blend-mode: multiply;"><path d="M5,499.3518518518518C392.5,499.3518518518518,392.5,509.35185185185185,780,509.35185185185185" stroke="#d62728" stroke-width="141.2962962962963"/><title>S10-Rev23 → 24: 7</title></g><g style="mix-blend-mode: multiply;"><path d="M5,398.4259259259259C392.5,398.4259259259259,392.5,191.5740740740741,780,191.5740740740741" stroke="#d62728" stroke-width="20.185185185185187"/><title>S10-Rev23 → 23: 1</title></g><g style="mix-blend-mode: multiply;"><path d="M5,378.24074074074076C392.5,378.24074074074076,392.5,35.27777777777778,780,35.27777777777778" stroke="#d62728" stroke-width="20.185185185185187"/><title>S10-Rev23 → 28: 1</title></g></g><g><text x="776" y="10.092592592592592" text-anchor="end"><tspan alignment-baseline="middle" x="776" style="font-family: Arial, sans-serif; font-size: 10px; fill: black; font-weight: bold;">19</tspan></text><text x="776" y="35.27777777777779" text-anchor="end"><tspan alignment-baseline="middle" x="776" style="font-family: Arial, sans-serif; font-size: 10px; fill: black; font-weight: bold;">28</tspan></text><text x="776" y="70.55555555555559" text-anchor="end"><tspan alignment-baseline="middle" x="776" style="font-family: Arial, sans-serif; font-size: 10px; fill: black; font-weight: bold;">21</tspan></text><text x="776" y="115.92592592592595" text-anchor="end"><tspan alignment-baseline="middle" x="776" style="font-family: Arial, sans-serif; font-size: 10px; fill: black; font-weight: bold;">25</tspan></text><text x="776" y="171.3888888888889" text-anchor="end"><tspan alignment-baseline="middle" x="776" style="font-family: Arial, sans-serif; font-size: 10px; fill: black; font-weight: bold;">23</tspan></text><text x="9" y="50.370370370370374" text-anchor="start"><tspan alignment-baseline="middle" x="9" style="font-family: Arial, sans-serif; font-size: 10px; fill: black; font-weight: bold;">IN23</tspan></text><text x="9" y="146.20370370370372" text-anchor="start"><tspan alignment-baseline="middle" x="9" style="font-family: Arial, sans-serif; font-size: 10px; fill: black; font-weight: bold;">A22</tspan></text><text x="776" y="257.1296296296297" text-anchor="end"><tspan alignment-baseline="middle" x="776" style="font-family: Arial, sans-serif; font-size: 10px; fill: black; font-weight: bold;">20</tspan></text><text x="776" y="373.14814814814815" text-anchor="end"><tspan alignment-baseline="middle" x="776" style="font-family: Arial, sans-serif; font-size: 10px; fill: black; font-weight: bold;">22</tspan></text><text x="776" y="509.35185185185185" text-anchor="end"><tspan alignment-baseline="middle" x="776" style="font-family: Arial, sans-serif; font-size: 10px; fill: black; font-weight: bold;">24</tspan></text><text x="9" y="282.4074074074074" text-anchor="start"><tspan alignment-baseline="middle" x="9" style="font-family: Arial, sans-serif; font-size: 10px; fill: black; font-weight: bold;">L20</tspan></text><text x="9" y="469.0740740740741" text-anchor="start"><tspan alignment-baseline="middle" x="9" style="font-family: Arial, sans-serif; font-size: 10px; fill: black; font-weight: bold;">S10-Rev23</tspan></text></g><g><text x="782.5" y="-4" text-anchor="middle" style="font-family: Arial, sans-serif; font-size: 12px; fill: rgb(123, 123, 123); font-weight: bold;">19</text><text x="2.5" y="6" text-anchor="middle" style="font-family: Arial, sans-serif; font-size: 12px; fill: rgb(123, 123, 123); font-weight: bold;">A22</text></g></g></svg>